<?xml version="1.0" encoding="utf-8"?>
<!-- Generator: Adobe Illustrator 22.1.0, SVG Export Plug-In . SVG Version: 6.00 Build 0)  -->
<svg version="1.1" id="Layer_1" xmlns="http://www.w3.org/2000/svg" xmlns:xlink="http://www.w3.org/1999/xlink" x="0px" y="0px"
	 viewBox="0 0 718 290" style="enable-background:new 0 0 718 290;" xml:space="preserve">
<style type="text/css">
	.st0{fill:#2A7DE1;}
	.st1{fill:#FFFFFF;}
</style>
<g>
	<rect x="0.1" y="-0.2" class="st0" width="346" height="290"/>
	<g>
		<path d="M441.1,154.5c0,5.1-3.1,8.8-8.2,9.9c6.3,0.9,10,5.1,10,11.1c0,7.5-5.9,11.9-15.9,11.9h-18.8v-43.9h18.5
			C435.7,143.5,441.1,147.6,441.1,154.5z M436,155.2c0-4.5-3.5-7.1-9.3-7.1h-13.2v14.4h13.2C432.5,162.5,436,159.9,436,155.2z
			 M437.9,174.9c0-4.9-4.1-7.8-11.3-7.7h-13.2v15.6h13.2C433.8,182.9,437.9,180,437.9,174.9z"/>
		<path d="M470.8,183c8.3,0,13.4-5,13.4-13.7v-25.9h5v25.9c0,11.5-6.9,18.3-18.4,18.3c-11.5,0-18.5-6.8-18.5-18.3v-25.9h5v25.9
			C457.3,178,462.5,183,470.8,183z"/>
		<path d="M514.2,148.2c-5.6,0-9.3,2.3-9.3,6c0,11.4,24.7,5.5,24.7,21.4c0,7.3-6.5,12-15.9,12c-6.4,0-12.7-2.8-16.8-6.7l2.3-4.3
			c4.1,3.9,9.7,6.1,14.6,6.1c6.3,0,10.3-2.6,10.3-6.8c0.1-11.7-24.7-5.5-24.7-21.3c0-6.9,6.1-11.3,15.2-11.3
			c5.1,0,10.3,1.6,13.9,4.1l-2.1,4.5C522.4,149.3,517.7,148.2,514.2,148.2z"/>
		<path d="M544.9,143.5v43.9h-5v-43.9H544.9z"/>
		<path d="M563.4,143.5l26.4,35.7v-35.7h5v43.9h-5.1l-26.4-35.6v35.6h-5v-43.9H563.4z"/>
		<path d="M637.8,143.5v4.6h-24.8v14.7h22.1v4.6h-22.1v15.3h25.6v4.6H608v-43.9H637.8z"/>
		<path d="M661.6,148.2c-5.6,0-9.3,2.3-9.3,6c0,11.4,24.7,5.5,24.7,21.4c0,7.3-6.5,12-15.9,12c-6.4,0-12.7-2.8-16.8-6.7l2.3-4.3
			c4.1,3.9,9.7,6.1,14.6,6.1c6.3,0,10.3-2.6,10.3-6.8c0.1-11.7-24.7-5.5-24.7-21.3c0-6.9,6.1-11.3,15.2-11.3
			c5.1,0,10.3,1.6,13.9,4.1l-2.1,4.5C669.8,149.3,665.1,148.2,661.6,148.2z"/>
		<path d="M700,148.2c-5.6,0-9.3,2.3-9.3,6c0,11.4,24.7,5.5,24.7,21.4c0,7.3-6.5,12-15.9,12c-6.4,0-12.7-2.8-16.8-6.7l2.3-4.3
			c4.1,3.9,9.7,6.1,14.6,6.1c6.3,0,10.3-2.6,10.3-6.8c0.1-11.7-24.7-5.5-24.7-21.3c0-6.9,6.1-11.3,15.2-11.3
			c5.1,0,10.3,1.6,13.9,4.1l-2.1,4.5C708.1,149.3,703.5,148.2,700,148.2z"/>
		<path d="M421.1,223.5c-5.6,0-9.3,2.3-9.3,6c0,11.4,24.7,5.5,24.7,21.4c0,7.3-6.5,12-15.9,12c-6.4,0-12.7-2.8-16.8-6.7l2.3-4.3
			c4.1,3.9,9.7,6.1,14.6,6.1c6.3,0,10.3-2.6,10.3-6.8c0.1-11.7-24.7-5.5-24.7-21.3c0-6.9,6.1-11.3,15.2-11.3
			c5.1,0,10.3,1.6,13.9,4.1l-2.1,4.5C429.3,224.6,424.6,223.5,421.1,223.5z"/>
		<path d="M476.5,218.8v4.6h-24.8v14.7h22.1v4.6h-22.1v15.3h25.6v4.6h-30.6v-43.9H476.5z"/>
		<path d="M516.3,262.7l-9.2-14.1c-0.9,0.1-1.8,0.1-2.8,0.1h-11.7v13.9h-5v-43.9h16.7c11,0,17.3,5.4,17.3,14.7
			c0,7.2-3.6,12.2-9.9,14.2l10.4,15H516.3z M504.3,244.2c8,0,12.5-3.6,12.5-10.5c0-6.7-4.5-10.2-12.5-10.2h-11.7v20.7H504.3z"/>
		<path d="M531.5,218.8l15.1,38.3l15.2-38.3h5.3l-17.9,43.9h-5.2l-17.8-43.9H531.5z"/>
		<path d="M579.1,218.8v43.9h-5v-43.9H579.1z"/>
		<path d="M611.2,223.3c-9.9,0-17.9,7.7-17.9,17.4c0,9.7,8,17.5,17.9,17.5c4.8,0,9.5-2,13-5.3l3.1,3.3c-4.3,4.1-10.2,6.7-16.3,6.7
			c-12.7,0-22.7-9.8-22.7-22.2c0-12.3,10.2-22,22.9-22c6,0,11.9,2.4,16.1,6.4l-3,3.6C620.8,225.3,616.1,223.3,611.2,223.3z"/>
		<path d="M666.1,218.8v4.6h-24.8v14.7h22.1v4.6h-22.1v15.3H667v4.6h-30.6v-43.9H666.1z"/>
		<path d="M689.9,223.5c-5.6,0-9.3,2.3-9.3,6c0,11.4,24.7,5.5,24.7,21.4c0,7.3-6.5,12-15.9,12c-6.4,0-12.7-2.8-16.8-6.7l2.3-4.3
			c4.1,3.9,9.7,6.1,14.6,6.1c6.3,0,10.3-2.6,10.3-6.8c0.1-11.7-24.7-5.5-24.7-21.3c0-6.9,6.1-11.3,15.2-11.3
			c5.1,0,10.3,1.6,13.9,4.1l-2.1,4.5C698.1,224.6,693.4,223.5,689.9,223.5z"/>
	</g>
	<g>
		<path class="st1" d="M320.8,194.9v1.8H317v10.1h-2v-10.1h-3.8v-1.8H320.8z"/>
		<path class="st1" d="M324.9,194.9l3.9,7.9l3.9-7.9h2.4v11.9h-1.9l0-8.9l-3.8,7.6h-1.3l-3.8-7.6v8.9h-1.9v-11.9H324.9z"/>
	</g>
	<path class="st1" d="M76.8,217.3l16.6,33l16.6-33h6.4v45.5h-4.8l-0.1-37.8l-16.6,33h-3.1l-16.5-33v37.8h-4.9v-45.5H76.8z"/>
	<path class="st1" d="M129.3,217.3l15.7,39.7l15.7-39.7h5.5l-18.6,45.5h-5.4l-18.5-45.5H129.3z"/>
	<path class="st1" d="M221.1,217.3l27.3,37v-37h5.1v45.5h-5.3l-27.3-36.9v36.9h-5.2v-45.5H221.1z"/>
	<path class="st1" d="M286.9,221.7c-10.3,0-18.5,8-18.5,18.1c0,10,8.3,18.1,18.5,18.1c5,0,9.9-2.1,13.5-5.5l3.2,3.4
		c-4.5,4.2-10.6,6.9-16.9,6.9c-13.1,0-23.5-10.1-23.5-23c0-12.7,10.5-22.8,23.7-22.8c6.2,0,12.3,2.5,16.6,6.6l-3.1,3.8
		C296.9,223.8,291.9,221.7,286.9,221.7z"/>
	<path class="st1" d="M318.1,217.3v45.5h-5.2v-45.5H318.1z"/>
	<polygon class="st1" points="40.5,222.1 59.8,222.1 59.8,217.3 28,217.3 28,222.1 33.4,222.1 	"/>
	<polygon class="st1" points="51.1,242.1 59.8,242.1 59.8,237.3 51.6,237.3 33.9,237.3 28,237.3 28,242.1 33.9,242.1 	"/>
	<polygon class="st1" points="45.6,257.9 33.2,257.9 28,257.9 28,262.8 59.8,262.8 59.8,257.9 	"/>
	<polygon class="st1" points="185.9,222.1 205.2,222.1 205.2,217.3 173.4,217.3 173.4,222.1 178.8,222.1 	"/>
	<polygon class="st1" points="196.5,242.1 205.2,242.1 205.2,237.3 197,237.3 179.3,237.3 173.4,237.3 173.4,242.1 179.3,242.1 	"/>
	<polygon class="st1" points="191,257.9 178.6,257.9 173.4,257.9 173.4,262.8 205.2,262.8 205.2,257.9 	"/>
</g>
</svg>
